# xmcd
#
# Track frame offsets:
#	150
#	13025
#	27422
#	39097
#	51160
#	64006
#	76724
#	87344
#	100570
#	110598
#	125003
#	139771
#	150281
#	164535
#	176754
#
# Disc length: 2564 seconds
#
# Revision: 0
# Processed by: cddbd v1.5.2PL0 Copyright (c) Steve Scherf et al.
# Submitted via: EasyCDDAExtractor 16.0.6.1
#
DISCID=b50a020f
DTITLE=Βιολάρης Μιχάλης - Τριάντα μεγάλες επιτυχίες-Μ. Βιολάρης 2
DYEAR=2002
DGENRE=Ελαφραλαϊκή
TTITLE0=Τούτο το πρωϊ [Λίνου Κόκοτου-Αργύρη Βεργόπουλου]
TTITLE1=Και συ δε μού μιλάς [Λίνου Κόκοτου-Αργύρη Βεργόπουλου]
TTITLE2=Γιακουμής [Βασίλη Κουμπή-Δημήτρη Ιατρόπουλου]
TTITLE3=Μιά ξανθιά απ' τη Μυτιλήνη [Γιώργου Κοντογιώργου-Γιάννη Κακουλίδη]
TTITLE4=Λεβεντομάννα [Απόστολου Καλδάρα-Δημήτρη Ρήτα]
TTITLE5=Μιά Λεμεσσσιανή [Μιχάλη Βιολάρη-Ανδρέα Γρηγορίου]
TTITLE6=Τηλλυρκώτισσα [παραδ. Κύπρου, διασκ. Μ. Βιολάρη]
TTITLE7=Κι αν βγει ο ήλιος δυό φορές [Γιάννη Γλέζου-Άκου Δασκαλόπουλου]
TTITLE8=Ας πιούμε, αν θες [Γιώργου Κριμιζάκη-Σώτιας Τσώτου]
TTITLE9=Μηνύματα [Γιάννη Σπανού-Κώστα Ασημακόπουλου]
TTITLE10=Η αγάπη μου [Γιώργου Κριμιζάκη-Λευτέρη Παπαδόπουλου]
TTITLE11=Παρασκευούλα ζάχαρη [Γιώργου Κοντογιώργου-Γιάννη Κακουλίδη]
TTITLE12=Γύρνα πίσω Αποστόλη [Γιώργου Κριμιζάκη-Γιάννη Κακουλίδη]
TTITLE13=Ψωροκώσταινα καϋμένη [Γιώργου Κριμιζάκη-Γιάννη Κακουλίδη]
TTITLE14=Εν Αθήναις τη... [Γιώργου Κριμιζάκη-Μάρως Μπιζάνη]
EXTD=
EXTT0=
EXTT1=
EXTT2=
EXTT3=
EXTT4=
EXTT5=
EXTT6=
EXTT7=
EXTT8=
EXTT9=
EXTT10=
EXTT11=
EXTT12=
EXTT13=
EXTT14=
PLAYORDER=
